<?xml version="1.0" encoding="utf-8"?>
<!-- Generator: Adobe Illustrator 27.0.1, SVG Export Plug-In . SVG Version: 6.00 Build 0)  -->
<svg version="1.1" id="Layer_1" xmlns="http://www.w3.org/2000/svg" xmlns:xlink="http://www.w3.org/1999/xlink" x="0px" y="0px"
	 viewBox="0 0 512 512" style="enable-background:new 0 0 512 512;" xml:space="preserve">
<style type="text/css">
	.st0{fill-rule:evenodd;clip-rule:evenodd;fill:#FCCC12;}
	.st1{fill-rule:evenodd;clip-rule:evenodd;fill:#05AC3F;}
	.st2{fill-rule:evenodd;clip-rule:evenodd;fill:#069DE0;}
	.st3{fill-rule:evenodd;clip-rule:evenodd;fill:#FF7112;}
	.st4{fill-rule:evenodd;clip-rule:evenodd;fill:#EF1541;}
	.st5{fill-rule:evenodd;clip-rule:evenodd;fill:#6E55DC;}
	.st6{fill-rule:evenodd;clip-rule:evenodd;}
</style>
<g id="layer1" transform="translate(83.789155,-95.600144)">
	<g id="g432" transform="translate(1.5875,57.15003)">
		<path id="path873" class="st0" d="M-4.7,253.3c-8.3-5.5-19-7.6-28-7.6c-29.1,0-52.7,23.6-52.7,52.7c0,29.1,23.6,52.7,52.7,52.7
			h174.8L-4.7,253.3z"/>
		<path id="path879" class="st1" d="M345.9,253.3c8.3-5.5,19-7.6,28-7.6c29.1,0,52.7,23.6,52.7,52.7c0,29.1-23.6,52.7-52.7,52.7
			H199.1L345.9,253.3z"/>
		<path id="path885" class="st2" d="M384.6,182.5c0-29.1-23.6-52.7-52.7-52.7c-20.8,0-39.8,12.2-48.1,31.2l-72.3,164.1l148.9-98.2
			C375.4,216.9,384.6,200.4,384.6,182.5z"/>
		<path id="path893" class="st3" d="M-42.4,182.5c0-29.1,23.6-52.7,52.7-52.7c20.8,0,39.8,12.2,48.1,31.2l72.3,164.1l-148.9-98.2
			C-33.2,216.9-42.4,200.4-42.4,182.5L-42.4,182.5z"/>
		<path id="path897" class="st4" d="M163.1,107.8c0-29.1-23.6-52.7-52.7-52.7c-29.1,0-52.7,23.6-52.7,52.7c0,8.2,2.3,16.2,5.6,23.7
			l73.1,166.3l26.1-182C162.8,113.1,163.1,110.5,163.1,107.8L163.1,107.8z"/>
		<path id="path903" class="st5" d="M206.4,297.8l73.1-166.3c3.3-7.5,5.6-15.4,5.6-23.7c0-29.1-23.6-52.7-52.7-52.7
			c-29.1,0-52.7,23.6-52.7,52.7c0,1.3,0.1,2.5,0.2,3.8H203c6.1,0,10.2,1.7,13.2,5.9c-12.1,3.5-33.3,15.9-30.8,33.1L206.4,297.8z"/>
		<path id="rect908" class="st6" d="M82.4,530V388.8h-31v91.5l-68-91.5h-33.2V530h31v-91.4L49,530H82.4z"/>
		<path id="rect916" class="st6" d="M192.4,530c29.5,0,49.7-12.7,49.7-43.4c0-16-8-26.4-21.3-32.5c9.9-4.6,16.8-12.7,16.8-25.8
			c0-23.4-19.1-39.5-44.6-39.5h-83V530H192.4z M140.9,415.8h48.6c9.3,0,15.6,4.7,15.6,12.6c0,9-6.4,13.4-15.7,13.4h-48.5V415.8z
			 M140.9,468.7h48.3c12.8,0,20.8,6.1,20.8,16.9c0,11.1-7.9,16.6-20.3,16.6h-48.8V468.7z"/>
		<path id="path930" d="M258.1,459c0,42.6,35.7,74.8,79.1,74.8c26.4,0,48.1-10.9,64-27.2L379.8,482c-12.4,11.7-24.7,19-42.4,19
			c-26.5,0-46.1-18.8-46.1-41.5c0-20.7,17.4-41.5,44.9-41.5c15,0,26.7,6.8,36.2,17.1l23.8-24c-15.6-15.4-35.3-26-59.9-26
			C296.4,385.1,258.1,415.6,258.1,459L258.1,459z"/>
	</g>
</g>
</svg>
